{"title":"Ragini MMS 2 - Baby Doll [Sunny Leone Song] 720p [Sbyky]","uid":9648749,"size":46964288,"categoryP":"video","categoryS":"music_videos","magnet":"?xt=urn:btih:786d977cf888d0724d11ad1ea87a5794049cf3e1&amp;dn=Ragini+MMS+2+-+Baby+Doll+%5BSunny+Leone+Song%5D+720p+%5BSbyky%5D&amp;tr=udp%3A%2F%2Ftracker.openbittorrent.com%3A80&amp;tr=udp%3A%2F%2Fopen.demonii.com%3A1337&amp;tr=udp%3A%2F%2Ftracker.coppersurfer.tk%3A6969&amp;tr=udp%3A%2F%2Fexodus.desync.com%3A6969","seeders":6,"leechers":0,"uploader":"Sbyky","files":1,"time":1393042168,"description":"\n\nGeneral\nComplete name                            : Ragini MMS 2 - Baby Doll [Sunny Leone Song] 720p [Sbyky].MP4\nFormat                                   : MPEG-4\nFormat profile                           : Base Media / Version 2\nCodec ID                                 : mp42\nFile size                                : 44.8 MiB\nDuration                                 : 2mn 24s\nOverall bit rate mode                    : Variable\nOverall bit rate                         : 2 609 Kbps\nEncoded date                             : UTC 2014-02-17 09:32:38\nTagged date                              : UTC 2014-02-17 09:32:38\n\nVideo\nID                                       : 1\nFormat                                   : AVC\nFormat/Info                              : Advanced Video Codec\nFormat profile                           : &lt;a class=&quot;__cf_email__&quot; href=&quot;/cdn-cgi/l/email-protection&quot; data-cfemail=&quot;4d05242a250d017e637c&quot;&gt;[email&amp;#160;protected]&lt;/a&gt;&lt;script cf-hash='f9e31' type=&quot;text/javascript&quot;&gt;\n/* &lt;![CDATA[ */!function(){try{var t=&quot;currentScript&quot;in document?document.currentScript:function(){for(var t=document.getElementsByTagName(&quot;script&quot;),e=t.length;e--;)if(t[e].getAttribute(&quot;cf-hash&quot;))return t[e]}();if(t&amp;&amp;t.previousSibling){var e,r,n,i,c=t.previousSibling,a=c.getAttribute(&quot;data-cfemail&quot;);if(a){for(e=&quot;&quot;,r=parseInt(a.substr(0,2),16),n=2;a.length-n;n+=2)i=parseInt(a.substr(n,2),16)^r,e+=String.fromCharCode(i);e=document.createTextNode(e),c.parentNode.replaceChild(e,c)}}}catch(u){}}();/* ]]&gt; */&lt;/script&gt;\nFormat settings, CABAC                   : Yes\nFormat settings, ReFrames                : 1 frame\nCodec ID                                 : avc1\nCodec ID/Info                            : Advanced Video Coding\nDuration                                 : 2mn 24s\nBit rate                                 : 2 415 Kbps\nMaximum bit rate                         : 5 941 Kbps\nWidth                                    : 1 280 pixels\nHeight                                   : 720 pixels\nDisplay aspect ratio                     : 16:9\nFrame rate mode                          : Constant\nFrame rate                               : 25.000 fps\nColor space                              : YUV\nChroma subsampling                       : 4:2:0\nBit depth                                : 8 bits\nScan type                                : Progressive\nBits/(Pixel*Frame)                       : 0.105\nStream size                              : 41.4 MiB (93%)\nTagged date                              : UTC 2014-02-17 09:32:40\n\nAudio\nID                                       : 2\nFormat                                   : AAC\nFormat/Info                              : Advanced Audio Codec\nFormat profile                           : LC\nCodec ID                                 : 40\nDuration                                 : 2mn 24s\nBit rate mode                            : Variable\nBit rate                                 : 192 Kbps\nMaximum bit rate                         : 205 Kbps\nChannel(s)                               : 2 channels\nChannel positions                        : Front: L R\nSampling rate                            : 44.1 KHz\nCompression mode                         : Lossy\nStream size                              : 3.30 MiB (7%)\nTitle                                    : IsoMedia File Produced by Google, 5-11-2011\nEncoded date                             : UTC 2014-02-17 09:32:39\nTagged date                              : UTC 2014-02-17 09:32:40\n\nShared By Sbyky\n","torrent":{"xt":"urn:btih:786d977cf888d0724d11ad1ea87a5794049cf3e1","amp;dn":"Ragini+MMS+2+-+Baby+Doll+%5BSunny+Leone+Song%5D+720p+%5BSbyky%5D","amp;tr":["udp%3A%2F%2Ftracker.openbittorrent.com%3A80","udp%3A%2F%2Fopen.demonii.com%3A1337","udp%3A%2F%2Ftracker.coppersurfer.tk%3A6969","udp%3A%2F%2Fexodus.desync.com%3A6969"],"infoHash":"786d977cf888d0724d11ad1ea87a5794049cf3e1","infoHashBuffer":{"type":"Buffer","data":[120,109,151,124,248,136,208,114,77,17,173,30,168,122,87,148,4,156,243,225]},"announce":[],"urlList":[]}}